<svg width="35" height="35" viewBox="0 0 35 35" fill="none" xmlns="http://www.w3.org/2000/svg">
<path d="M17.807 34.8081C27.1702 34.8081 34.7606 27.1413 34.7606 17.6839C34.7606 8.22638 27.1702 0.55957 17.807 0.55957C8.44387 0.55957 0.853516 8.22638 0.853516 17.6839C0.853516 27.1413 8.44387 34.8081 17.807 34.8081Z" fill="#2B2B2B"/>
<path d="M19.6816 28.591V19.0481H22.8338L23.4345 15.1023H19.6861V12.5387C19.6861 11.4576 20.2099 10.4038 21.8899 10.4038H23.597V7.04192C23.597 7.04192 22.048 6.77734 20.5712 6.77734C17.4822 6.77734 15.4635 8.66585 15.4635 12.0916V15.1023H12.0312V19.0481H15.4635V28.591H19.6906H19.6816Z" fill="white"/>
</svg>
