<svg width="33" height="35" viewBox="0 0 33 35" fill="none" xmlns="http://www.w3.org/2000/svg">
<path d="M16.9077 34.8081C25.792 34.8081 32.9942 27.1413 32.9942 17.6839C32.9942 8.22638 25.792 0.55957 16.9077 0.55957C8.02345 0.55957 0.821289 8.22638 0.821289 17.6839C0.821289 27.1413 8.02345 34.8081 16.9077 34.8081Z" fill="#2B2B2B"/>
<path d="M21.2717 12.2949C20.7343 12.2949 20.3008 12.7328 20.3008 13.2757C20.3008 13.8185 20.7343 14.2564 21.2717 14.2564C21.8092 14.2564 22.2427 13.8185 22.2427 13.2757C22.2427 12.7328 21.8092 12.2949 21.2717 12.2949Z" fill="white"/>
<path d="M16.9445 13.5557C14.691 13.5557 12.8574 15.4077 12.8574 17.6839C12.8574 19.9602 14.691 21.8122 16.9445 21.8122C19.1981 21.8122 21.0316 19.9602 21.0316 17.6839C21.0316 15.4077 19.1981 13.5557 16.9445 13.5557ZM16.9445 20.3297C15.4993 20.3297 14.3252 19.1436 14.3252 17.6839C14.3252 16.2242 15.4993 15.0382 16.9445 15.0382C18.3897 15.0382 19.5639 16.2242 19.5639 17.6839C19.5639 19.1436 18.3897 20.3297 16.9445 20.3297Z" fill="white"/>
<path d="M20.1871 26.0618H13.562C10.8117 26.0618 8.57617 23.8038 8.57617 21.0258V14.3339C8.57617 11.5558 10.8117 9.29785 13.562 9.29785H20.1871C22.9374 9.29785 25.1729 11.5558 25.1729 14.3339V21.0258C25.1729 23.8038 22.9374 26.0618 20.1871 26.0618ZM13.562 10.8807C11.6742 10.8807 10.1387 12.4317 10.1387 14.3384V21.0303C10.1387 22.9371 11.6742 24.488 13.562 24.488H20.1871C22.0749 24.488 23.6103 22.9371 23.6103 21.0303V14.3384C23.6103 12.4317 22.0749 10.8807 20.1871 10.8807H13.562Z" fill="white"/>
</svg>
