<svg width="35" height="35" viewBox="0 0 35 35" fill="none" xmlns="http://www.w3.org/2000/svg">
<path d="M17.8753 34.8081C27.3327 34.8081 34.9996 27.1413 34.9996 17.6839C34.9996 8.22638 27.3327 0.55957 17.8753 0.55957C8.41778 0.55957 0.750977 8.22638 0.750977 17.6839C0.750977 27.1413 8.41778 34.8081 17.8753 34.8081Z" fill="#2B2B2B"/>
<path d="M10.4424 13.6737H13.563V23.8005H10.4424V13.6737ZM12.0004 8.6377C12.9985 8.6377 13.8069 9.45422 13.8069 10.4623C13.8069 11.4705 12.9985 12.287 12.0004 12.287C11.0024 12.287 10.1895 11.4659 10.1895 10.4623C10.1895 9.45879 10.9978 8.6377 12.0004 8.6377Z" fill="white"/>
<path d="M15.5186 13.6737H18.5082V15.0605H18.5489C18.9644 14.2622 19.9805 13.4229 21.5024 13.4229C24.6592 13.4229 25.2418 15.5212 25.2418 18.249V23.8051H22.1256V18.8785C22.1256 17.7016 22.1031 16.1917 20.5044 16.1917C18.9056 16.1917 18.6347 17.469 18.6347 18.7919V23.8005H15.5186V13.6737Z" fill="white"/>
</svg>
