<svg width="31" height="32" viewBox="0 0 31 32" fill="none" xmlns="http://www.w3.org/2000/svg">
<path d="M15.2735 31.0979C23.7089 31.0979 30.547 24.1908 30.547 15.6705C30.547 7.15023 23.7089 0.243164 15.2735 0.243164C6.83819 0.243164 0 7.15023 0 15.6705C0 24.1908 6.83819 31.0979 15.2735 31.0979Z" fill="#2B2B2B"/>
<path d="M16.5652 14.588L21.6323 8.63965H20.431L16.0323 13.8034L12.5187 8.63965H8.46777L13.7787 16.4491L8.46777 22.6848H9.66906L14.3116 17.2337L18.0194 22.6848H22.0703L16.5607 14.588H16.5652ZM14.9213 16.5175L14.3839 15.7421L10.1026 9.55653H11.9452L15.4 14.5515L15.9374 15.327L20.431 21.8181H18.5884L14.9213 16.5221V16.5175Z" fill="white"/>
</svg>
